<svg width="32" height="32" viewBox="0 0 32 32" fill="none" xmlns="http://www.w3.org/2000/svg">
  <defs>
    <linearGradient id="heartGradient" x1="0%" y1="0%" x2="100%" y2="100%">
      <stop offset="0%" style="stop-color:#ff6b9d;stop-opacity:1" />
      <stop offset="50%" style="stop-color:#c44569;stop-opacity:1" />
      <stop offset="100%" style="stop-color:#ff4757;stop-opacity:1" />
    </linearGradient>
    <linearGradient id="starGradient" x1="0%" y1="0%" x2="100%" y2="100%">
      <stop offset="0%" style="stop-color:#ffd32a;stop-opacity:1" />
      <stop offset="100%" style="stop-color:#ffa502;stop-opacity:1" />
    </linearGradient>
  </defs>
  
  <!-- Background circle -->
  <circle cx="16" cy="16" r="15" fill="url(#heartGradient)" stroke="#fff" stroke-width="2"/>
  
  <!-- Main heart -->
  <path d="M16 24c-0.5 0-1-0.2-1.4-0.6l-8-8c-1.6-1.6-1.6-4.2 0-5.8s4.2-1.6 5.8 0L16 12.4l3.6-3.6c1.6-1.6 4.2-1.6 5.8 0s1.6 4.2 0 5.8l-8 8c-0.4 0.4-0.9 0.6-1.4 0.6z" fill="#fff"/>
  
  <!-- Small hearts -->
  <path d="M8 8c-0.3 0-0.6-0.1-0.8-0.3l-1.5-1.5c-0.4-0.4-0.4-1 0-1.4s1-0.4 1.4 0L8 6.2l0.9-0.9c0.4-0.4 1-0.4 1.4 0s0.4 1 0 1.4L8.8 7.7C8.6 7.9 8.3 8 8 8z" fill="url(#starGradient)"/>
  
  <path d="M24 8c-0.3 0-0.6-0.1-0.8-0.3l-1.5-1.5c-0.4-0.4-0.4-1 0-1.4s1-0.4 1.4 0L24 6.2l0.9-0.9c0.4-0.4 1-0.4 1.4 0s0.4 1 0 1.4L24.8 7.7C24.6 7.9 24.3 8 24 8z" fill="url(#starGradient)"/>
  
  <!-- Sparkles -->
  <circle cx="12" cy="12" r="1" fill="url(#starGradient)"/>
  <circle cx="20" cy="12" r="1" fill="url(#starGradient)"/>
  <circle cx="16" cy="20" r="1" fill="url(#starGradient)"/>
</svg> 